<svg xmlns="http://www.w3.org/2000/svg" fill="white" viewBox="0 0 500 625" x="0px" y="0px"><path d="M345.313,34.14c1.736,8.5-7.613,22.134-11.923,29.542-2.662,4.157,3.757,7.727,6.533,3.818,4.113-5.794,8.844-11.523,15.188-14.962,4.244-2.2,11.343-4.828,14.951-.356,1.147,2.107-.32,3.565-1.481,5.242-4.2,6.063-8.975,11.785-13.393,17.693-6.976,9.584-16.079,10.272-26.083,5.113a3.14,3.14,0,0,0-3.787,4.908c4.66,5.1,12.3,6.732,19.174,5.569-3.807,8.258-.9,21.562,10.152,21.716,11.187.152,17.9-13.6,11.674-22.474-2.972-4.235-10-.2-7,4.089,4.42,6.313-5.109,14.585-8.112,7.186-2.213-5.453,2.544-11.079,5.6-15.174,4.037-5.416,8.2-10.741,12.284-16.122,3.241-4.273,8.517-9.152,9.263-14.669,1.266-14.712-18.539-15.362-27.456-9.121,1.706-4.47,2.92-9.226,1.008-13.816C350.254,28.362,344.317,29.721,345.313,34.14Z"/><path d="M444.525,157.63q9.71,3.782,19.437,7.512c4.206,1.621,6.027-5.144,1.861-6.75q-7.015-2.7-14.036-5.4c2.8-2.66,5.62-5.315,8.188-8.191,2.125-2.382.523-5.566-2.444-5.9-4.464-.5-9.036-1.359-13.591-2.158a54.691,54.691,0,0,0,7.239-8.143c1.438-2.11-.54-4.391-2.647-4.611-4.808-.5-9.567-1.651-14.355-2.566,2.222-2.438,4.772-4.725,6.869-7.062a2.388,2.388,0,0,0-3.376-3.375c-3.476,3.169-6.829,7.383-10.774,9.941-2.022,1.311-2.113,5.3.749,5.734,4.96.756,10.2,1.16,15.213,2.147a57.7,57.7,0,0,1-7.637,7.79c-1.8,1.434-.777,4.753,1.371,5.192,4.568.935,9.2,1.671,13.789,2.559-2.482,2.47-4.9,5.015-7.392,7.458C440.966,153.793,442.178,156.716,444.525,157.63Z"/><path d="M412.057,126.241a153.029,153.029,0,0,0-11,10.768c-1.835,1.979-.4,4.669,2.05,4.948,4.377.5,8.946.817,13.334,1.69-2.119,2.616-4.149,5.313-6.089,8.044-1.432,2.015.557,4.214,2.542,4.431,4.18.456,8.488.988,12.668,1.86-2.373,2.86-4.643,5.8-6.917,8.751-1.056,1.373.055,3.707,1.642,4.037,7.3,1.514,14.515,3.394,21.652,5.536,3.626,1.088,5.2-4.625,1.561-5.665-5.686-1.627-11.41-3.015-17.185-4.235,2.376-2.615,4.7-5.263,6.9-8.048a3.083,3.083,0,0,0-2.144-5.177c-4.157-.542-8.3-1.337-12.443-2.051,2.14-2.5,4.209-5.054,6.152-7.7,1.486-2.021-.544-4.683-2.718-4.738a93.278,93.278,0,0,1-13.081-1.635q3.394-3.549,6.876-7.013C418.347,127.587,414.636,123.966,412.057,126.241Z"/><path d="M461.377,236.673a2.21,2.21,0,0,0-3.8,0,18.668,18.668,0,0,0-1.533,6.254,93.255,93.255,0,0,1-22.373-3.142c-4.518-1.133-6.447,5.858-1.924,6.977a101.042,101.042,0,0,0,24.195,3.3c.319,7.258-1.1,15.05.441,22.172.68,3.057,5.5,3.059,6.185,0a33.925,33.925,0,0,0,.708-6.5c7.581.488,14.644,3.474,22.08,4.582,1.986.157,2.931-2.558,1.6-3.855-5.354-5.2-15.707-7.879-23.8-7.615-.151-3.132-.237-6.006-.133-9.128,8.071-.8,17.449-2.969,23.241-8.663a2.583,2.583,0,0,0-2.493-4.283c-6.88,2.2-13.541,5.376-20.894,5.806A18.311,18.311,0,0,0,461.377,236.673Z"/><path d="M429.814,272.776c3.363-1.044,6.114-3.337,9.563-4.372,3.637-1.093,7.455-1.36,10.939-2.892,2.039-.9,1.518-4.441-.632-4.834-6.781-1.237-19.72.887-23.28,7.662C425.233,270.57,427.185,273.592,429.814,272.776Z"/><path d="M461.077,355.543c4.525-6.567,2.742-17.013-5.415-19.753-7.533-2.53-15.66,4.341-12.626,12.221a2.788,2.788,0,0,0,5.372-1.481c-.715-4.1,3.708-6.085,6.673-3.761,3.008,2.356,2.165,6.934-.236,9.417-7.8,9.292-38.317-9.974-47.11-14.84-4.021-2.605-7.762,4-3.7,6.327,8.033,5.5,38.813,24.479,34.111,35.218-1.038,3.056-4.156,6.106-7.711,5.013a4.142,4.142,0,0,1-.029-8.043c2.883-.857,2.5-5.775-.74-5.471a9.681,9.681,0,0,0-6.616,15.968c12.8,12.958,34.762-7.429,14.183-26.428C445.417,362.8,455.54,363.579,461.077,355.543Z"/><path d="M358.643,440.759c8.489-3.267,15.9-.164,23.734,3.021,2.383.968,3.756-2.4,2.322-3.989-4.759-5.291-12.732-7.657-20.293-7.311,7.768-13.3-.313-28.737-15.666-29.8-9.66-.672-20.356,5.017-22.833,14.846-2.388,9.476,4.167,19.282,14.366,18.711,4.637-.259,4.688-7.46,0-7.258-8.477.367-9.089-9.586-4.5-14.608a16.585,16.585,0,0,1,17.392-4.273c11.723,4.358,8.175,16.866,1.834,24.392-11.467,4.562-15.855,19.563-11.134,30.4,1.313,3.036,6.363,1.471,6.173-1.672C349.507,454.5,348.617,444.616,358.643,440.759Z"/><path d="M267.112,433.947c1.634-1.789.064-5.462-2.584-4.439-5.075,1.959-9.74,4.328-15.262,4.8a29.756,29.756,0,0,1-17.321-4.045c-4.408-2.481-8.393,4.358-3.959,6.773a39.865,39.865,0,0,0,8.868,3.482c-.389,4.838-.226,9.787-.375,14.613-.172,5.538-1.162,11.89.074,17.308.637,2.793,4.49,2.429,5.3,0,1.675-5,1.195-11.238,1.388-16.476.171-4.648.628-9.522.472-14.24a36.489,36.489,0,0,0,7.181-.051c-.7,8.283-.215,16.833-.294,25.105-.037,3.9-.224,7.794.626,11.394a42.953,42.953,0,0,0-23.625,5.677c-3.977,2.328-.37,8.531,3.616,6.186a32.427,32.427,0,0,1,15.793-4.648c5.6-.132,10.316,1.635,15.586,3.149,3.636,1.045,5.335-3.846,2.462-5.84a24.588,24.588,0,0,0-7.008-3.319c-1.706-12.989.53-26.292-.076-39.358A23.193,23.193,0,0,0,267.112,433.947Z"/><path d="M171.571,428.885c-1.1-9.879-6.146-19.039-15.046-23.952-10.257-5.462-25.943-5.923-33.51,4.37-8.634,9.9,2.154,24.99,14.9,21.045,7.036-2.253,7.757-9.031,6.582-15.316-.9-4.843-8.347-2.8-7.405,2.041.642,3.3.456,6.593-3.728,6.344a6.983,6.983,0,0,1-6.323-7.248c.839-3.955,4.5-6.15,8.3-7.092,13.9-2.51,26.636,5.112,28.243,19.808C164.125,433.949,172.138,433.984,171.571,428.885Z"/><path d="M121.608,433.4c-.747-5.7-8.632-4.727-7.842,1.061,1.7,14.629,14.831,26.567,29.77,25.916,12.253,1.361,28.075-10.948,19.014-24.012a14.085,14.085,0,0,0-15.325-5.03c-9.242,2.92-8.826,15.827-2.852,21.658C133.142,453.79,122.754,444.612,121.608,433.4Zm30.215,4.874a6.907,6.907,0,0,1,6.021,5.1C155.565,454,141.391,442.668,151.823,438.276Z"/><path d="M66.489,338.349c-6.585,2.524-13.642,4.047-19.83,7.535-8.652,4.876-16.461,18.876-5.77,26.307C53.613,380.65,68,366.327,76.714,358.37c3.351,8.586,15.143,12.423,22.043,4.2C106.64,352,96.036,339.3,83.942,344.589c-10.587,4.211-16.764,14.884-26.5,20.38-3.317,1.806-10.508,4.6-13.245.5-7.688-14.078,26.232-18.253,33.659-24.392,16.564-10.267,6.285-28.99-8.17-21.47a3.128,3.128,0,0,0,2.4,5.691c5.316-1.17,9.322,2.911,4.472,7.57C73.821,335.488,69.97,337.016,66.489,338.349Zm27.29,15.059c1.318,3.429-1.78,6.37-5.1,6.431-3.53.066-5.592-2.873-6.534-5.91C86.706,350.683,91.879,348.462,93.779,353.408Z"/><path d="M17.87,253.471c.17.137.347.259.522.388-8.109,6.251-2.318,17.248,6.323,19.734a20.1,20.1,0,0,0-8.834,5.919c-1.912,2.275.642,6.508,3.446,4.466,11.218-7.932,27.2-5.2,40.343-6.73,4.4-.273,4.462-6.739,0-6.885-6.506-.212-13-.7-19.494-1.12-5.137-.329-14.157-.3-17.289-5.365-3.968-6.417,9.963-4.859,12.775-4.808,6.566.119,13.132.268,19.7.311,4.983.033,4.965-7.575,0-7.727-8.566-.261-17.421-.957-26.037-.645a17.188,17.188,0,0,1-5.916-2.478c-4.439-3.151-4.854-9.379,1.777-9.534,13.359-.508,26.868,4.957,40.172,2.04a43.36,43.36,0,0,1,1.712,10.482c.123,5.008,7.9,5.03,7.8,0a59.326,59.326,0,0,0-1.8-13.435c5.124-2.93,8.848-7.558,9.217-13.947.126-2.181-2.763-3.2-4.215-1.746-2.893,2.9-4.783,5.959-7.558,8.244-3.313-7.489-8.676-13.8-16.649-16.968-5.564-2.21-13.257-3.433-18.023,1.221-3.46,3.38-4.722,10.243.335,12.769a2.445,2.445,0,0,0,3.54-2.722c-1.565-10.725,14.679-3.1,18.3.29,2.632,2.46,3.969,5.435,5.1,8.667-11.916,1.386-23.759-2.111-35.648-2.548C13.241,229.655,7.159,244.369,17.87,253.471Z"/><path d="M60.822,155.03c-1.967,2.941-3.884,5.918-5.57,9.006-1.744,3.194,2.781,7.155,5.276,4.071,4.2-5.184,7.762-10.9,11.5-16.41,1.734-2.556-1.192-6.663-4.208-5.474-12.1,4.771-21.216-6.179-14.578-17.214,2.578-4.287,5.45-7.706,10.765-6.482a14.469,14.469,0,0,1,10.446,9.052,4.14,4.14,0,0,0,.963,1.531,2.945,2.945,0,0,0,4.265,1.794c2.6-1.246,3.894-4.291,5.449-6.591,1.681-2.488,3.442-4.926,5.253-7.321,1.26-1.667.251-4.278-1.378-5.254-4.792-2.509-7.449,5.116-9.893,8.01C53.287,91.888,23.082,150.168,60.822,155.03Z"/><path d="M97.55,126.855c-9.156,14.7-18.378,29.353-27.425,44.117-2.492,4.066,3.826,7.714,6.368,3.722,9.3-14.606,18.432-29.324,27.627-44C106.727,126.535,100.137,122.7,97.55,126.855Z"/><path d="M124.651,60.705c-2.944-2.593-6.54-4.239-10.042-2.049-1.594,1-1.477,3.8.554,4.234,11.071,3.149,13.18,20.737,20.446,28.5,2.2,2.475,5.644-.219,5.125-2.983-.73-3.881-3.024-7.566-5.011-11.072-1.819-5.159-3.814-10.526-3.371-16.093.1-1.239,1.028-7.273,3.374-6.556,1.144.35,2.44,5.534,2.836,6.586,2.5,6.735,4.689,13.643,8.582,19.734,2.545,3.986,8.722.432,6.368-3.722-4.037-7.118-6.132-14.956-9.359-22.428.551-4.3,2.4-11.063,7.134-6.955,2.419,2.1,3.329,6.99,4.292,9.807,2.7,7.913,4.771,16.969,9.12,24.2,5.96,10.61,20.527,14.861,27.686,3.11a35.868,35.868,0,0,0,2.387,5.7c2.079,3.677,7.41,1.12,6.59-2.778-.617-2.927-2.006-5.778-3.068-8.573-.94-2.475-1.67-6.008-3.649-7.852s-4.149-1.343-6.374-.348c-2.453,1.1-5.737,2.073-6.916,4.67-1.494,3.378,3.1,4.488,5.465,3.392-1.527,2.862-3.585,5.377-7.262,5.107C166.888,82.684,165.572,57.652,160.292,48c-4.5-11-17.717-12.261-21.817-.524C131.247,44.1,124.122,54.011,124.651,60.705Z"/><path d="M232.883,61.729c-.422,2.038,1.834,4.371,3.851,2.96,3.579-2.5,5.682-6.5,8.143-10.058q3.474-5.02,6.985-10.013c10.6,9.912,17.176.682,4.6-6.415q4.894-6.727,9.968-13.316-.216,4.043-.361,8.085c-.175,4.767,6.858,4.6,7.305,0,.614-6.323,1.161-12.682,1.362-19.035.86-2.553-2.494-5.362-4.775-4.234a92.323,92.323,0,0,0-12.19,3.27c-2.865.96-6.9,1.7-8.183,4.706a2.325,2.325,0,0,0,.814,3.106c3.577,1.873,7.322-.622,10.985-1.3q-5.419,7.218-10.7,14.539c-8.288-7.053-13.56.569-4.445,6.211-2.162,3.06-4.309,6.13-6.408,9.231C237.285,53.234,233.82,57.212,232.883,61.729Z"/><path d="M284.523,269.625c20.577-3.542,59.228-8.047,62.632-8.981,4.411-.684,4.391-7.381-.143-7.914-.25-.032-47.444-5.467-66.127-8.692a4.827,4.827,0,0,1-3.053-7.654c9.1-12.12,29.489-37.895,29.489-37.895,2.981-3.633-1.945-8.62-5.61-5.64,0,0-22.548,17.8-34.31,26.868a4.829,4.829,0,0,1-7.757-3.39c-1.829-20.074-5.9-69.881-7.272-89.511-.321-4.957-7.6-5.052-7.988-.1-1.569,24.356-5.139,68.652-7.741,92.942a4.826,4.826,0,0,1-7.726,3.314c-13.592-10.351-42.448-34.4-42.448-34.4-3.59-3.136-8.826,1.868-5.684,5.592,0,0,24.067,30.032,34.129,43.729a4.826,4.826,0,0,1-3.245,7.637c-18.036,2.442-61.681,7.166-61.929,7.2-4.5.532-4.629,7.361-.024,7.932.246.033,41.785,4.525,59.568,6.689a4.824,4.824,0,0,1,3.354,7.578c-7.546,10.658-21.829,30.465-21.829,30.465-2.632,3.574,2.027,8.278,5.624,5.553,0,0,21.419-15.6,32.319-23.162a4.819,4.819,0,0,1,7.509,3.186c1.242,7.674,2.6,19.115,3.072,24.03,1.987,20.528,4.04,41.754,5.044,56.089a4.063,4.063,0,0,0,3.14,3.73,4,4,0,0,0,4.847-3.631c.8-11.474,2.5-27.118,4.291-43.681.844-7.782,2.768-24.386,4.267-34.536a4.822,4.822,0,0,1,7.871-2.99c10.13,8.485,28.75,24.283,28.75,24.283,3.513,3.041,8.666-1.7,5.785-5.456,0,0-14.239-18.629-22.61-29.657A5.985,5.985,0,0,1,284.523,269.625Z"/><path d="M177.128,319.434c-4.373,3.031.024,9.609,4.5,6.729C186,323.133,181.6,316.554,177.128,319.434Z"/></svg>